<svg xmlns="http://www.w3.org/2000/svg" width="200" height="50" viewBox="0 0 200 50">
  <defs>
    <style>
      .cls-1 {
        fill: #fff;
      }

      .cls-2 {
        fill: #fafafa;
        fill-rule: evenodd;
      }
    </style>
  </defs>
  <rect class="cls-1" width="2" height="44"/>
  <rect id="Rectangle_1_copy_4" data-name="Rectangle 1 copy 4" class="cls-1" x="133" y="43" width="67" height="2"/>
  <rect id="Rectangle_1_copy_3" data-name="Rectangle 1 copy 3" class="cls-1" y="43" width="67" height="2"/>
  <path id="WEBDEC" class="cls-2" d="M42.677,8.241L36.384,32.2,29.122,8.241h-2.9L19.2,32.2,12.953,8.241H10.9l6.85,26.5h2.9L27.67,10.783l7.262,23.963h2.9l6.9-26.5H42.677ZM70.62,32.81H53.41V21.917H68.925V19.981H53.41v-9.8H69.966V8.241H51.473v26.5H70.62V32.81Zm27.446-7.637a5.357,5.357,0,0,0-.823-2.021A5.072,5.072,0,0,0,95.5,21.59a7.416,7.416,0,0,0-2.989-.811,5.308,5.308,0,0,0,2.178-.956,5.221,5.221,0,0,0,1.331-1.513,5.776,5.776,0,0,0,.666-1.828,10.429,10.429,0,0,0,.182-1.9A5.526,5.526,0,0,0,94.75,9.754a10.438,10.438,0,0,0-6.112-1.513H79.053v26.5h9.634q4.72,0,7.153-1.912a6.6,6.6,0,0,0,2.433-5.519A11.684,11.684,0,0,0,98.066,25.173ZM80.989,21.82H88.13a19.015,19.015,0,0,1,3.861.327,6.581,6.581,0,0,1,2.469.992,3.61,3.61,0,0,1,1.319,1.706,7.088,7.088,0,0,1,.387,2.469q0,5.495-7.5,5.495H80.989V21.82Zm0-11.643,7.479-.024a8.29,8.29,0,0,1,4.962,1.174,4.222,4.222,0,0,1,1.549,3.595,4.289,4.289,0,0,1-1.67,3.824,9.389,9.389,0,0,1-5.2,1.138H80.989V10.178ZM124.641,11.5Q121.3,8.265,114.6,8.265h-8.012V34.746H114.6q13.385,0,13.385-13.458Q127.981,14.729,124.641,11.5Zm0.75,14.656a8.517,8.517,0,0,1-1.839,3.619,8.166,8.166,0,0,1-3.5,2.263,16.715,16.715,0,0,1-5.507.775H108.52V10.178h6.027a17.314,17.314,0,0,1,5.531.75,8.2,8.2,0,0,1,3.5,2.191,8.046,8.046,0,0,1,1.827,3.5,19.1,19.1,0,0,1,.521,4.672A20.132,20.132,0,0,1,125.391,26.153Zm30.025,6.657h-17.21V21.917h15.515V19.981H138.206v-9.8h16.556V8.241H136.269v26.5h19.147V32.81Zm29.661-17.476a8.7,8.7,0,0,0-1.307-3.062,9.653,9.653,0,0,0-2.324-2.4,10.943,10.943,0,0,0-3.111-1.561,11.821,11.821,0,0,0-3.642-.557,12.671,12.671,0,0,0-5.023.956,10.653,10.653,0,0,0-3.824,2.735,12.22,12.22,0,0,0-2.433,4.3,17.7,17.7,0,0,0-.847,5.664,18.112,18.112,0,0,0,.847,5.725,12.413,12.413,0,0,0,2.42,4.345,10.733,10.733,0,0,0,3.813,2.771,12.456,12.456,0,0,0,5.047.98,13.205,13.205,0,0,0,3.824-.532,9.928,9.928,0,0,0,3.123-1.549,8.731,8.731,0,0,0,2.251-2.505,9.214,9.214,0,0,0,1.186-3.377h-2.009a6.626,6.626,0,0,1-2.76,4.49,9.752,9.752,0,0,1-5.664,1.537,10.592,10.592,0,0,1-4.127-.775,8.573,8.573,0,0,1-3.171-2.275,10.365,10.365,0,0,1-2.033-3.715,16.7,16.7,0,0,1-.714-5.119,16.463,16.463,0,0,1,.714-5.1,10.021,10.021,0,0,1,2.033-3.655,8.483,8.483,0,0,1,3.195-2.215,11.161,11.161,0,0,1,4.176-.75,10.282,10.282,0,0,1,3.038.436,8.894,8.894,0,0,1,2.5,1.2,7.371,7.371,0,0,1,1.815,1.791,6.16,6.16,0,0,1,.993,2.215h2.009Z"/>
  <rect id="Rectangle_1_copy_2" data-name="Rectangle 1 copy 2" class="cls-1" x="198" width="2" height="44"/>
  <rect id="Rectangle_1_copy" data-name="Rectangle 1 copy" class="cls-1" width="200" height="2"/>
</svg>
