<svg xmlns="http://www.w3.org/2000/svg" width="200" height="50" viewBox="0 0 200 50">
  <defs>
    <style>
      .cls-1 {
        fill: #fff;
      }

      .cls-2 {
        fill: #fefefe;
        fill-rule: evenodd;
      }
    </style>
  </defs>
  <rect class="cls-1" width="2" height="44"/>
  <rect id="Rectangle_1_copy_4" data-name="Rectangle 1 copy 4" class="cls-1" x="133" y="43" width="67" height="2"/>
  <rect id="Rectangle_1_copy_3" data-name="Rectangle 1 copy 3" class="cls-1" y="43" width="67" height="2"/>
  <path id="WEBDEC" class="cls-2" d="M42.677,8.241L36.384,32.2,29.122,8.241h-2.9L19.2,32.2,12.953,8.241H10.9l6.85,26.5h2.9L27.67,10.783l7.262,23.963h2.9l6.9-26.5H42.677ZM70.62,32.81H53.41V21.917H68.925V19.981H53.41v-9.8H69.966V8.241H51.473v26.5H70.62V32.81Zm27.446-7.637a5.357,5.357,0,0,0-.823-2.021A5.072,5.072,0,0,0,95.5,21.59a7.416,7.416,0,0,0-2.989-.811,5.308,5.308,0,0,0,2.178-.956,5.221,5.221,0,0,0,1.331-1.513,5.776,5.776,0,0,0,.666-1.828,10.429,10.429,0,0,0,.182-1.9A5.526,5.526,0,0,0,94.75,9.754a10.438,10.438,0,0,0-6.112-1.513H79.053v26.5h9.634q4.72,0,7.153-1.912a6.6,6.6,0,0,0,2.433-5.519A11.684,11.684,0,0,0,98.066,25.173ZM80.989,21.82H88.13a19.015,19.015,0,0,1,3.861.327,6.581,6.581,0,0,1,2.469.992,3.61,3.61,0,0,1,1.319,1.706,7.088,7.088,0,0,1,.387,2.469q0,5.495-7.5,5.495H80.989V21.82Zm0-11.643,7.479-.024a8.29,8.29,0,0,1,4.962,1.174,4.222,4.222,0,0,1,1.549,3.595,4.289,4.289,0,0,1-1.67,3.824,9.389,9.389,0,0,1-5.2,1.138H80.989V10.178ZM124.641,11.5Q121.3,8.265,114.6,8.265h-8.012V34.746H114.6q13.385,0,13.385-13.458Q127.981,14.729,124.641,11.5Zm0.75,14.656a8.517,8.517,0,0,1-1.839,3.619,8.166,8.166,0,0,1-3.5,2.263,16.715,16.715,0,0,1-5.507.775H108.52V10.178h6.027a17.314,17.314,0,0,1,5.531.75,8.2,8.2,0,0,1,3.5,2.191,8.046,8.046,0,0,1,1.827,3.5,19.1,19.1,0,0,1,.521,4.672A20.132,20.132,0,0,1,125.391,26.153Zm30.025,6.657h-17.21V21.917h15.515V19.981H138.206v-9.8h16.556V8.241H136.269v26.5h19.147V32.81Zm29.661-17.476a8.7,8.7,0,0,0-1.307-3.062,9.653,9.653,0,0,0-2.324-2.4,10.943,10.943,0,0,0-3.111-1.561,11.821,11.821,0,0,0-3.642-.557,12.671,12.671,0,0,0-5.023.956,10.653,10.653,0,0,0-3.824,2.735,12.22,12.22,0,0,0-2.433,4.3,17.7,17.7,0,0,0-.847,5.664,18.112,18.112,0,0,0,.847,5.725,12.413,12.413,0,0,0,2.42,4.345,10.733,10.733,0,0,0,3.813,2.771,12.456,12.456,0,0,0,5.047.98,13.205,13.205,0,0,0,3.824-.532,9.928,9.928,0,0,0,3.123-1.549,8.731,8.731,0,0,0,2.251-2.505,9.214,9.214,0,0,0,1.186-3.377h-2.009a6.626,6.626,0,0,1-2.76,4.49,9.752,9.752,0,0,1-5.664,1.537,10.592,10.592,0,0,1-4.127-.775,8.573,8.573,0,0,1-3.171-2.275,10.365,10.365,0,0,1-2.033-3.715,16.7,16.7,0,0,1-.714-5.119,16.463,16.463,0,0,1,.714-5.1,10.021,10.021,0,0,1,2.033-3.655,8.483,8.483,0,0,1,3.195-2.215,11.161,11.161,0,0,1,4.176-.75,10.282,10.282,0,0,1,3.038.436,8.894,8.894,0,0,1,2.5,1.2,7.371,7.371,0,0,1,1.815,1.791,6.16,6.16,0,0,1,.993,2.215h2.009Z"/>
  <path id="we_decorate_the_web" data-name="we decorate the web" class="cls-2" d="M73.4,43.453l-0.621,2.274-0.691-2.274H71.739l-0.663,2.274-0.642-2.274H70.122l0.781,2.69H71.25l0.663-2.256L72.6,46.143h0.347l0.757-2.69H73.4Zm2.7,2.708a1.042,1.042,0,0,0,.323-0.154,0.932,0.932,0,0,0,.375-0.588H76.52a0.43,0.43,0,0,1-.09.222,0.662,0.662,0,0,1-.189.163,0.914,0.914,0,0,1-.252.1,1.2,1.2,0,0,1-.278.033,0.994,0.994,0,0,1-.366-0.066,0.823,0.823,0,0,1-.3-0.2,1.016,1.016,0,0,1-.208-0.335,1.626,1.626,0,0,1-.1-0.476h2.117V44.8a1.948,1.948,0,0,0-.083-0.592,1.258,1.258,0,0,0-.239-0.444,1.041,1.041,0,0,0-.378-0.279,1.226,1.226,0,0,0-.5-0.1,1.183,1.183,0,0,0-.486.1,1.082,1.082,0,0,0-.378.279,1.269,1.269,0,0,0-.246.444,2.041,2.041,0,0,0,0,1.189,1.266,1.266,0,0,0,.255.446,1.088,1.088,0,0,0,.394.278,1.316,1.316,0,0,0,.51.1A1.385,1.385,0,0,0,76.1,46.161ZM74.74,44.581a1.458,1.458,0,0,1,.116-0.406,0.954,0.954,0,0,1,.2-0.288,0.771,0.771,0,0,1,.272-0.17,0.958,0.958,0,0,1,.33-0.056,0.848,0.848,0,0,1,.6.229,1.149,1.149,0,0,1,.314.691H74.74Zm8.448,1.562h0.278v-3.8H83.188v1.371a1.437,1.437,0,0,0-.241-0.177,1.129,1.129,0,0,0-.224-0.1,1.093,1.093,0,0,0-.208-0.043,1.908,1.908,0,0,0-.2-0.01,0.924,0.924,0,0,0-.422.1,1,1,0,0,0-.34.285,1.4,1.4,0,0,0-.226.451,2.036,2.036,0,0,0-.082.6,2.249,2.249,0,0,0,.068.573,1.309,1.309,0,0,0,.2.439,0.921,0.921,0,0,0,.326.283,0.96,0.96,0,0,0,.448.1,1.573,1.573,0,0,0,.2-0.014,0.863,0.863,0,0,0,.219-0.061A1.158,1.158,0,0,0,82.943,46a1.452,1.452,0,0,0,.245-0.233v0.371Zm0-.753a1.584,1.584,0,0,1-.4.408,0.815,0.815,0,0,1-.458.137,0.693,0.693,0,0,1-.59-0.285,1.382,1.382,0,0,1-.212-0.833,1.952,1.952,0,0,1,.059-0.508,1.065,1.065,0,0,1,.167-0.361,0.687,0.687,0,0,1,.259-0.215,0.785,0.785,0,0,1,.338-0.071,1.028,1.028,0,0,1,.45.1,1.371,1.371,0,0,1,.391.291v1.34Zm3,0.771a1.042,1.042,0,0,0,.323-0.154,0.932,0.932,0,0,0,.375-0.588H86.611a0.43,0.43,0,0,1-.09.222,0.665,0.665,0,0,1-.189.163,0.916,0.916,0,0,1-.252.1,1.2,1.2,0,0,1-.278.033,0.994,0.994,0,0,1-.366-0.066,0.824,0.824,0,0,1-.3-0.2,1.016,1.016,0,0,1-.208-0.335,1.622,1.622,0,0,1-.1-0.476h2.117V44.8a1.951,1.951,0,0,0-.083-0.592,1.26,1.26,0,0,0-.24-0.444,1.041,1.041,0,0,0-.378-0.279,1.226,1.226,0,0,0-.5-0.1,1.183,1.183,0,0,0-.486.1,1.081,1.081,0,0,0-.378.279,1.27,1.27,0,0,0-.247.444,2.04,2.04,0,0,0,0,1.189,1.266,1.266,0,0,0,.255.446,1.089,1.089,0,0,0,.394.278,1.315,1.315,0,0,0,.51.1A1.385,1.385,0,0,0,86.188,46.161Zm-1.357-1.579a1.458,1.458,0,0,1,.116-0.406,0.955,0.955,0,0,1,.2-0.288,0.772,0.772,0,0,1,.272-0.17,0.958,0.958,0,0,1,.33-0.056,0.848,0.848,0,0,1,.6.229,1.149,1.149,0,0,1,.314.691H84.831Zm4.6,1.581a0.906,0.906,0,0,0,.3-0.151,0.886,0.886,0,0,0,.219-0.248,1.055,1.055,0,0,0,.127-0.342H89.8a0.506,0.506,0,0,1-.083.224,0.585,0.585,0,0,1-.165.16,0.769,0.769,0,0,1-.224.1,1.016,1.016,0,0,1-.26.033,0.962,0.962,0,0,1-.375-0.071,0.768,0.768,0,0,1-.292-0.213,0.991,0.991,0,0,1-.187-0.356,1.9,1.9,0,0,1,0-.993,0.992,0.992,0,0,1,.188-0.356,0.769,0.769,0,0,1,.292-0.213,0.962,0.962,0,0,1,.375-0.071,1.083,1.083,0,0,1,.272.033,0.718,0.718,0,0,1,.224.1,0.545,0.545,0,0,1,.158.163,0.56,0.56,0,0,1,.078.222h0.271a1.019,1.019,0,0,0-.123-0.34,0.878,0.878,0,0,0-.219-0.25,0.937,0.937,0,0,0-.3-0.153,1.3,1.3,0,0,0-.854.043,1.053,1.053,0,0,0-.378.276,1.245,1.245,0,0,0-.243.444,2.142,2.142,0,0,0,0,1.2,1.264,1.264,0,0,0,.245.444,1.034,1.034,0,0,0,.378.274,1.234,1.234,0,0,0,.488.094A1.251,1.251,0,0,0,89.43,46.163Zm2.141-2.683a1.033,1.033,0,0,0-.378.276,1.263,1.263,0,0,0-.241.443,2.136,2.136,0,0,0,0,1.2,1.3,1.3,0,0,0,.243.446,1.01,1.01,0,0,0,.377.276,1.327,1.327,0,0,0,.984,0,1.024,1.024,0,0,0,.378-0.278,1.28,1.28,0,0,0,.241-0.446,2.153,2.153,0,0,0,0-1.192,1.261,1.261,0,0,0-.24-0.444,1.025,1.025,0,0,0-.378-0.278A1.33,1.33,0,0,0,91.571,43.479Zm0.116,2.385a0.765,0.765,0,0,1-.29-0.215,1.009,1.009,0,0,1-.187-0.358,1.9,1.9,0,0,1,0-.993,0.973,0.973,0,0,1,.188-0.354,0.78,0.78,0,0,1,.29-0.212,1.024,1.024,0,0,1,.75,0,0.78,0.78,0,0,1,.29.212,0.992,0.992,0,0,1,.189.354,1.854,1.854,0,0,1,0,.993,1.029,1.029,0,0,1-.189.358,0.765,0.765,0,0,1-.29.215A1.023,1.023,0,0,1,91.687,45.864Zm3.891-2.473-0.056-.005-0.052,0a1.21,1.21,0,0,0-.184.016,0.833,0.833,0,0,0-.21.064,1.19,1.19,0,0,0-.226.135,1.455,1.455,0,0,0-.234.226V43.453H94.339v2.69h0.278V44.217a1.4,1.4,0,0,1,.149-0.2,1.34,1.34,0,0,1,.187-0.177,1,1,0,0,1,.212-0.127,0.566,0.566,0,0,1,.229-0.049h0.1a0.47,0.47,0,0,1,.083.007V43.391Zm2.646,2.753H98.5V44.387a1.459,1.459,0,0,0-.056-0.418,0.774,0.774,0,0,0-.179-0.316,0.8,0.8,0,0,0-.319-0.2,1.438,1.438,0,0,0-.477-0.069,1.3,1.3,0,0,0-.764.186,0.763,0.763,0,0,0-.3.567h0.274a0.479,0.479,0,0,1,.224-0.357,1.089,1.089,0,0,1,.567-0.118,1.077,1.077,0,0,1,.406.062,0.5,0.5,0,0,1,.226.172,0.587,0.587,0,0,1,.1.259,2.382,2.382,0,0,1,.021.326H97.905a2.188,2.188,0,0,0-1.182.257,0.812,0.812,0,0,0-.394.718,0.738,0.738,0,0,0,.064.311,0.712,0.712,0,0,0,.175.239,0.779,0.779,0,0,0,.264.153,0.985,0.985,0,0,0,.33.054,1.956,1.956,0,0,0,.26-0.017,1.268,1.268,0,0,0,.259-0.064A1.51,1.51,0,0,0,97.947,46a1.95,1.95,0,0,0,.278-0.206v0.347Zm0-.684a1.982,1.982,0,0,1-.172.165,1.488,1.488,0,0,1-.217.154,1.26,1.26,0,0,1-.252.113,0.889,0.889,0,0,1-.276.043,0.871,0.871,0,0,1-.514-0.134,0.432,0.432,0,0,1-.187-0.373,0.546,0.546,0,0,1,.3-0.5,1.831,1.831,0,0,1,.9-0.174h0.42v0.7Zm2.421,0.441a0.606,0.606,0,0,1-.062,0h-0.066a0.768,0.768,0,0,1-.162-0.016,0.219,0.219,0,0,1-.119-0.069,0.34,0.34,0,0,1-.073-0.153,1.108,1.108,0,0,1-.025-0.266v-1.67h0.441V43.453h-0.441v-0.7H99.861v0.7H99.517v0.278h0.344v1.645a3.121,3.121,0,0,0,.017.352,0.659,0.659,0,0,0,.075.252,0.357,0.357,0,0,0,.166.151,0.7,0.7,0,0,0,.29.05c0.039,0,.079,0,0.118,0s0.079-.006.118-0.01V45.9Zm2.421,0.26a1.047,1.047,0,0,0,.323-0.154,0.938,0.938,0,0,0,.375-0.588h-0.275a0.426,0.426,0,0,1-.09.222,0.665,0.665,0,0,1-.189.163,0.908,0.908,0,0,1-.252.1,1.191,1.191,0,0,1-.277.033,1,1,0,0,1-.367-0.066,0.818,0.818,0,0,1-.3-0.2,1.024,1.024,0,0,1-.209-0.335,1.636,1.636,0,0,1-.1-0.476h2.117V44.8a1.967,1.967,0,0,0-.083-0.592,1.27,1.27,0,0,0-.24-0.444,1.04,1.04,0,0,0-.378-0.279,1.226,1.226,0,0,0-.5-0.1,1.178,1.178,0,0,0-.486.1,1.087,1.087,0,0,0-.379.279,1.28,1.28,0,0,0-.246.444,2.041,2.041,0,0,0,0,1.189,1.262,1.262,0,0,0,.255.446,1.1,1.1,0,0,0,.394.278,1.318,1.318,0,0,0,.511.1A1.383,1.383,0,0,0,103.066,46.161Zm-1.357-1.579a1.468,1.468,0,0,1,.116-0.406,0.946,0.946,0,0,1,.2-0.288,0.774,0.774,0,0,1,.273-0.17,0.961,0.961,0,0,1,.33-0.056,0.848,0.848,0,0,1,.6.229,1.147,1.147,0,0,1,.314.691h-1.836Zm7.552,1.319a0.606,0.606,0,0,1-.062,0h-0.066a0.768,0.768,0,0,1-.162-0.016,0.219,0.219,0,0,1-.119-0.069,0.34,0.34,0,0,1-.073-0.153,1.108,1.108,0,0,1-.025-0.266v-1.67H109.2V43.453h-0.441v-0.7h-0.277v0.7h-0.344v0.278h0.344v1.645a3.035,3.035,0,0,0,.017.352,0.652,0.652,0,0,0,.075.252,0.356,0.356,0,0,0,.166.151,0.7,0.7,0,0,0,.29.05c0.039,0,.079,0,0.118,0s0.079-.006.118-0.01V45.9Zm1.241-3.558h-0.278v3.8H110.5V44.179a2.052,2.052,0,0,1,.425-0.382,0.8,0.8,0,0,1,.439-0.135,0.858,0.858,0,0,1,.293.043,0.449,0.449,0,0,1,.195.132,0.549,0.549,0,0,1,.107.226,1.4,1.4,0,0,1,.033.325v1.756h0.278V44.363a0.806,0.806,0,0,0-.83-0.979,1.331,1.331,0,0,0-.206.017,1.051,1.051,0,0,0-.229.066,1.15,1.15,0,0,0-.247.142,1.729,1.729,0,0,0-.258.243v-1.51Zm4.486,3.818a1.047,1.047,0,0,0,.323-0.154,0.938,0.938,0,0,0,.375-0.588h-0.275a0.426,0.426,0,0,1-.09.222,0.665,0.665,0,0,1-.189.163,0.908,0.908,0,0,1-.252.1,1.191,1.191,0,0,1-.277.033,1,1,0,0,1-.367-0.066,0.818,0.818,0,0,1-.3-0.2,1.008,1.008,0,0,1-.209-0.335,1.6,1.6,0,0,1-.1-0.476h2.117V44.8a1.967,1.967,0,0,0-.083-0.592,1.27,1.27,0,0,0-.24-0.444,1.04,1.04,0,0,0-.378-0.279,1.228,1.228,0,0,0-.5-0.1,1.177,1.177,0,0,0-.485.1,1.087,1.087,0,0,0-.379.279,1.28,1.28,0,0,0-.246.444,2.041,2.041,0,0,0,0,1.189,1.262,1.262,0,0,0,.255.446,1.1,1.1,0,0,0,.394.278,1.318,1.318,0,0,0,.511.1A1.389,1.389,0,0,0,114.988,46.161Zm-1.357-1.579a1.435,1.435,0,0,1,.116-0.406,0.946,0.946,0,0,1,.2-0.288,0.774,0.774,0,0,1,.273-0.17,0.955,0.955,0,0,1,.329-0.056,0.848,0.848,0,0,1,.6.229,1.147,1.147,0,0,1,.314.691h-1.836Zm9.628-1.128-0.622,2.274-0.69-2.274H121.6l-0.663,2.274-0.643-2.274h-0.312l0.781,2.69h0.347l0.663-2.256,0.691,2.256h0.347l0.757-2.69h-0.309Zm2.7,2.708a1.036,1.036,0,0,0,.323-0.154,0.948,0.948,0,0,0,.24-0.25,0.97,0.97,0,0,0,.135-0.338h-0.274a0.436,0.436,0,0,1-.091.222,0.652,0.652,0,0,1-.189.163,0.913,0.913,0,0,1-.251.1,1.206,1.206,0,0,1-.278.033,0.992,0.992,0,0,1-.366-0.066,0.822,0.822,0,0,1-.3-0.2,1.006,1.006,0,0,1-.208-0.335,1.6,1.6,0,0,1-.1-0.476h2.117V44.8a1.936,1.936,0,0,0-.083-0.592,1.252,1.252,0,0,0-.239-0.444,1.052,1.052,0,0,0-.379-0.279,1.223,1.223,0,0,0-.5-0.1,1.185,1.185,0,0,0-.486.1,1.075,1.075,0,0,0-.378.279,1.266,1.266,0,0,0-.247.444,1.862,1.862,0,0,0-.087.588,1.828,1.828,0,0,0,.091.6,1.262,1.262,0,0,0,.255.446,1.088,1.088,0,0,0,.394.278,1.313,1.313,0,0,0,.51.1A1.383,1.383,0,0,0,125.957,46.161ZM124.6,44.581a1.468,1.468,0,0,1,.116-0.406,0.966,0.966,0,0,1,.2-0.288,0.761,0.761,0,0,1,.272-0.17,0.961,0.961,0,0,1,.33-0.056,0.848,0.848,0,0,1,.6.229,1.147,1.147,0,0,1,.314.691H124.6Zm3.5-2.239h-0.278v3.8H128.1V45.862a1.215,1.215,0,0,0,.441.272,1.355,1.355,0,0,0,.43.078,0.9,0.9,0,0,0,.422-0.1,1.021,1.021,0,0,0,.34-0.29,1.436,1.436,0,0,0,.227-0.453,1.969,1.969,0,0,0,.084-0.6,2.149,2.149,0,0,0-.07-0.569,1.328,1.328,0,0,0-.2-0.439,0.911,0.911,0,0,0-.326-0.281,0.97,0.97,0,0,0-.445-0.1,0.985,0.985,0,0,0-.211.024,1.023,1.023,0,0,0-.229.081,1.244,1.244,0,0,0-.237.153,1.33,1.33,0,0,0-.225.241V42.343Zm0,1.888a1.771,1.771,0,0,1,.4-0.42,0.779,0.779,0,0,1,.46-0.149,0.7,0.7,0,0,1,.59.281,1.368,1.368,0,0,1,.212.83,1.408,1.408,0,0,1-.226.868,0.717,0.717,0,0,1-.6.3,0.882,0.882,0,0,1-.45-0.118,1.766,1.766,0,0,1-.39-0.316v-1.27Z"/>
  <rect id="Rectangle_1_copy_2" data-name="Rectangle 1 copy 2" class="cls-1" x="198" width="2" height="44"/>
  <rect id="Rectangle_1_copy" data-name="Rectangle 1 copy" class="cls-1" width="200" height="2"/>
</svg>
